<?xml version="1.0" standalone="no"?>
<!DOCTYPE svg PUBLIC "-//W3C//DTD SVG 20010904//EN"
 "http://www.w3.org/TR/2001/REC-SVG-20010904/DTD/svg10.dtd">
<svg version="1.0" xmlns="http://www.w3.org/2000/svg"
 width="1177.000000pt" height="1177.000000pt" viewBox="0 0 1177.000000 1177.000000"
 preserveAspectRatio="xMidYMid meet">
<metadata>
Created by potrace 1.11, written by Peter Selinger 2001-2013
</metadata>
<g transform="translate(0.000000,1177.000000) scale(0.100000,-0.100000)"
fill="#000000" stroke="none">
<path d="M3109 8276 c-14 -11 -43 -35 -65 -53 -21 -17 -104 -84 -184 -149 -80
-64 -221 -178 -315 -253 -93 -75 -172 -138 -175 -142 -3 -3 -120 -97 -260
-210 -140 -112 -257 -206 -260 -210 -3 -3 -50 -41 -105 -85 -55 -43 -105 -83
-111 -89 -6 -5 -98 -80 -205 -166 -196 -158 -421 -340 -449 -362 -8 -7 -49
-39 -90 -72 -41 -33 -84 -68 -95 -77 -11 -9 -157 -127 -325 -263 -168 -135
-325 -263 -350 -284 l-45 -39 734 0 c548 0 737 3 746 11 7 7 34 30 61 52 51
42 252 210 669 560 138 115 259 217 270 226 11 9 52 43 90 76 66 55 432 362
575 481 36 30 76 64 90 76 278 238 512 426 522 420 7 -5 94 -76 193 -159 99
-83 279 -234 400 -335 121 -101 315 -264 432 -362 l211 -177 29 22 c15 12 37
30 48 39 11 9 157 128 325 263 168 135 306 249 307 253 1 4 -18 23 -43 42 -26
19 -53 42 -62 50 -8 8 -28 24 -43 35 -31 23 -471 377 -479 386 -3 3 -144 117
-315 254 -170 137 -312 252 -315 256 -3 4 -316 7 -695 7 -690 0 -691 0 -716
-22z"/>
<path d="M7250 8271 c-14 -15 -45 -42 -69 -61 -24 -19 -58 -47 -75 -61 -40
-33 -647 -522 -760 -613 -22 -17 -81 -65 -132 -106 -51 -41 -154 -124 -229
-185 -76 -60 -142 -114 -149 -120 -6 -5 -92 -75 -191 -155 -99 -79 -182 -147
-185 -150 -3 -3 -59 -48 -125 -100 -66 -52 -122 -97 -125 -100 -3 -3 -50 -42
-105 -85 -55 -44 -105 -84 -111 -90 -6 -5 -98 -80 -204 -165 -106 -85 -198
-159 -204 -165 -6 -5 -89 -72 -183 -148 -95 -76 -173 -140 -173 -142 0 -2 329
-3 732 -4 l731 0 51 42 c28 23 53 44 56 47 3 3 32 27 65 55 33 27 62 52 65 55
5 5 164 138 204 170 10 8 23 20 30 25 6 6 38 32 71 60 33 27 62 52 65 55 3 3
70 59 150 125 80 66 147 122 150 125 3 3 61 53 130 110 69 57 127 107 130 110
4 5 39 33 139 115 14 11 57 47 95 80 39 33 181 152 316 265 135 112 247 207
250 210 3 3 71 60 151 127 l146 121 174 -145 c96 -80 196 -164 222 -186 27
-23 95 -80 151 -127 56 -47 185 -155 287 -240 298 -250 539 -452 774 -648 121
-101 231 -194 245 -206 14 -11 95 -79 180 -150 85 -71 157 -132 160 -135 3 -4
20 -18 37 -33 l33 -26 735 0 735 0 -93 76 c-52 42 -111 91 -133 108 -101 81
-230 186 -244 197 -8 7 -190 154 -405 326 -214 173 -397 321 -405 328 -8 8
-58 48 -110 89 -52 42 -104 83 -115 92 -22 19 -380 308 -670 541 -99 80 -211
171 -250 202 -38 32 -191 155 -340 275 -148 119 -275 222 -280 229 -9 11 -148
13 -690 12 l-680 -1 -25 -25z"/>
<path d="M6660 5398 c-234 -46 -388 -180 -439 -378 -45 -178 3 -350 135 -478
101 -99 200 -141 559 -238 252 -67 319 -117 316 -234 -1 -63 -22 -109 -73
-161 -63 -64 -135 -88 -275 -89 -146 -2 -247 47 -320 155 -22 32 -61 134 -67
175 -2 14 -8 24 -12 24 -25 -5 -108 -14 -174 -20 -41 -4 -82 -8 -90 -10 -8 -1
-30 -3 -48 -3 l-34 -1 7 -47 c31 -237 152 -422 338 -516 105 -53 195 -70 377
-71 184 -1 236 4 336 35 256 78 408 289 399 554 -4 115 -12 151 -49 230 -85
180 -224 265 -594 360 -261 68 -352 110 -383 178 -23 51 -23 66 -3 116 37 93
195 141 382 117 112 -14 187 -83 219 -199 l17 -58 175 6 c97 4 179 9 184 12 4
2 5 16 3 31 -3 15 -8 47 -11 72 -9 63 -52 167 -89 215 -87 114 -187 178 -331
214 -126 31 -323 35 -455 9z"/>
<path d="M8808 5415 c-2 -1 -30 -5 -63 -9 -362 -37 -630 -311 -700 -714 -15
-82 -21 -339 -11 -409 40 -265 119 -431 274 -574 162 -149 353 -211 622 -205
139 4 216 18 320 58 277 109 462 366 505 703 11 78 11 281 2 370 -15 146 -81
329 -158 442 -112 163 -308 286 -514 323 -60 11 -269 22 -277 15z m188 -330
c126 -18 263 -123 321 -245 53 -113 67 -187 67 -360 1 -166 -4 -209 -29 -298
-81 -280 -360 -428 -622 -330 -74 28 -106 49 -170 114 -103 104 -153 249 -158
454 -6 260 42 422 157 538 111 112 255 154 434 127z"/>
<path d="M3040 5399 c-130 -18 -226 -49 -338 -110 -412 -221 -605 -703 -461
-1149 78 -242 255 -447 484 -563 365 -184 802 -119 1101 166 269 255 367 650
249 1004 -110 329 -399 581 -735 642 -81 15 -228 20 -300 10z m133 -301 c16
-29 47 -88 70 -130 22 -43 44 -78 48 -78 5 0 38 11 74 24 l65 24 0 -27 c0 -14
-4 -42 -10 -61 -5 -19 -12 -51 -15 -70 -3 -19 -19 -98 -36 -174 -16 -77 -29
-146 -29 -154 0 -8 14 3 31 24 42 54 99 123 130 158 l25 29 30 -47 29 -47 60
6 c112 11 160 17 168 22 10 6 10 4 -13 -130 -11 -65 -20 -122 -20 -127 0 -5
18 -19 39 -30 56 -28 58 -38 18 -74 -19 -17 -85 -78 -147 -136 -61 -58 -132
-123 -156 -145 l-43 -40 19 -44 c25 -54 26 -74 3 -67 -10 2 -38 7 -63 11 -25
4 -58 9 -75 11 -16 3 -41 7 -55 9 -14 2 -57 9 -97 15 -65 10 -120 9 -193 -4
-14 -3 -74 -12 -135 -22 -60 -9 -118 -18 -127 -20 -23 -4 -23 3 3 62 l22 48
-74 69 c-233 217 -309 290 -309 296 0 3 22 16 49 28 l49 22 -8 38 c-8 36 -13
68 -26 166 -3 23 -7 47 -9 54 -2 7 1 10 8 8 7 -2 35 -6 62 -9 28 -3 75 -8 106
-12 l56 -6 29 46 c16 25 32 46 35 46 4 0 13 -10 22 -22 8 -13 23 -33 33 -45
11 -11 35 -41 54 -64 19 -24 45 -55 58 -69 20 -21 22 -22 18 -5 -5 16 -25 113
-61 290 -17 85 -35 181 -35 186 0 4 32 -4 71 -18 40 -15 74 -22 79 -17 8 9
104 187 125 231 5 13 12 23 15 23 3 0 18 -24 33 -52z"/>
<path d="M67 5375 c-2 -5 -3 -422 -3 -925 l1 -915 169 0 169 0 0 713 c0 391 1
712 3 712 2 0 15 -53 30 -120 3 -14 21 -88 41 -165 19 -77 36 -147 38 -156 2
-8 10 -44 19 -80 9 -35 18 -73 21 -84 2 -11 20 -85 40 -165 20 -79 37 -151 38
-160 2 -8 30 -123 63 -256 l59 -241 174 1 175 1 13 45 c7 25 15 54 17 65 2 11
25 106 51 210 25 105 48 197 50 205 1 8 31 128 65 265 34 138 63 259 66 270 2
11 6 29 9 40 7 29 26 108 31 125 2 8 13 55 24 105 12 49 23 91 26 94 2 2 4
-317 4 -711 l0 -715 169 0 168 0 -1 926 -1 926 -263 0 c-145 0 -268 -2 -273
-5 -5 -4 -16 -33 -25 -66 -27 -104 -135 -528 -140 -549 -12 -55 -163 -639
-164 -632 0 4 -9 40 -19 80 -19 70 -63 241 -171 662 -28 110 -61 234 -72 275
-11 41 -21 82 -23 90 -9 47 -35 133 -40 138 -11 11 -534 8 -538 -3z"/>
<path d="M10250 4459 l0 -926 170 0 170 0 2 596 3 596 152 -255 c84 -140 244
-408 356 -595 l203 -340 185 0 184 0 0 910 c1 501 -1 917 -3 925 -3 13 -28 15
-165 14 -89 -1 -164 -2 -167 -3 -3 0 -5 -276 -5 -611 0 -336 -1 -610 -2 -610
-1 0 -41 66 -89 148 -48 81 -159 268 -248 417 -89 148 -168 282 -176 297 -37
70 -213 358 -219 359 -3 1 -84 2 -178 3 l-173 1 0 -926z"/>
<path d="M4510 4452 l0 -919 632 1 633 1 0 153 c0 83 -2 153 -5 153 -3 1 -205
2 -450 3 l-445 1 0 760 0 760 -183 3 -182 2 0 -918z"/>
</g>
</svg>
